<svg xmlns="http://www.w3.org/2000/svg" viewBox="0 0 100 360" preserveAspectRatio="none">
  <defs>
    <linearGradient id="area-448" x1="0%" y1="0%" x2="100%" y2="0%">
      <stop offset="0%" stop-color="rgb(6, 182, 212)" stop-opacity="0"/>
      <stop offset="55%" stop-color="rgb(6, 182, 212)" stop-opacity="0"/>
      <stop offset="75%" stop-color="rgb(6, 182, 212)" stop-opacity="0.1"/>
      <stop offset="90%" stop-color="rgb(6, 182, 212)" stop-opacity="0.18"/>
      <stop offset="100%" stop-color="rgb(6, 182, 212)" stop-opacity="0.25"/>
    </linearGradient>
    <linearGradient id="spray-448" x1="0" y1="0" x2="100" y2="0" gradientUnits="userSpaceOnUse">
      <stop offset="0%" stop-color="rgb(37, 99, 235)" stop-opacity="0"/>
      <stop offset="35%" stop-color="rgb(37, 99, 235)" stop-opacity="0.2"/>
      <stop offset="50%" stop-color="rgb(37, 99, 235)" stop-opacity="0.6"/>
      <stop offset="65%" stop-color="rgb(37, 99, 235)" stop-opacity="1"/>
      <stop offset="82%" stop-color="rgb(6, 182, 212)" stop-opacity="1"/>
      <stop offset="100%" stop-color="rgb(6, 182, 212)" stop-opacity="1"/>
    </linearGradient>
  </defs>
  <polygon points="0,0 80,0 80,20 81.7364233849007,23.5 82.90851287322614,27 83.56890940804175,30.5 83.94566364356152,34 84.28764217607495,37.5 84.70455399114121,41 85.09659525149186,44.5 85.21610540166354,48 84.8259381657138,51.5 83.86197269498713,55 82.50391216323959,58.5 81.11124483001812,62 80.05921257839447,65.5 79.56731572438446,69 79.61663537276267,72.5 80,76 78.33949854203684,79.5 76.85664857311083,83 75.40307656576763,86.5 73.98289439167597,90 72.79313892772464,93.5 72.13506955270464,97 72.24582668067312,100.5 73.14826451697253,104 74.60793221169959,107.5 76.22516555676783,111 77.61260516492517,114.5 78.55948654957662,118 79.09231475556622,121.5 79.40214062224645,125 79.68611240308822,128.5 80,132 78.39862995236113,135.5 76.42254816279701,139 74.39602452940731,142.5 72.6813411067831,146 71.50713053184847,149.5 70.8727131712067,153 70.58342645144677,156.5 70.39547200759529,160 70.18474210586723,163.5 70.03996768715234,167 70.22468277481165,170.5 71.02914660821952,174 72.59770778396822,177.5 74.83153762133989,181 77.42281233689096,184.5 80,188 77.30730694953031,191.5 74.88381510996874,195 72.99530120527871,198.5 71.75381118102068,202 71.04292304820366,205.5 70.56660634217269,209 69.995896748065,212.5 69.13047414429498,216 67.98333046684743,219.5 66.74133729360597,223 65.62664137610143,226.5 64.74130040023356,230 63.986852345503706,233.5 63.10622905380658,237 61.82355414539436,240.5 60,244 59.31684166827603,247.5 58.73521200020389,251 58.41043453177938,254.5 58.41971301165895,258 58.669073342931526,261.5 58.89644841287629,265 58.77368372240652,268.5 58.05215396172707,272 56.67054876548151,275.5 54.76460191730091,279 52.57479819894549,282.5 50.30658553009958,286 48.02423009891204,289.5 45.638720967102465,293 42.99429801682595,296.5 40,300 37.691205123944606,301.5 35.139438269704996,303 32.38449107827158,304.5 29.608970405971128,306 27.07314438259231,307.5 24.999463614465675,309 23.472044643960388,310.5 22.408445332036415,312 21.61957035446134,313.5 20.92272007114451,315 20.242324549667558,316.5 19.640580336668286,318 19.26151378506097,319.5 19.222749659595173,321 19.51978059494451,322.5 20,324 20.071112606306272,326.25 20.168146085786613,328.5 20.09361258307451,330.75 19.704017838330365,333 18.972558998274252,335.25 17.986731398311207,337.5 16.882512927243887,339.75 15.75386420562966,342 14.590747087543972,344.25 13.282215695153207,346.5 11.683078346274067,348.75 9.705407195953118,351 7.38154521398701,353.25 4.861768001178702,355.5 2.347725947705601,357.75 6.151954668652996e-16,360 0,360" fill="url(#spray-448)" fill-opacity="0.7"/>
  <polygon points="0,0 80,0 80,20 81.7364233849007,23.5 82.90851287322614,27 83.56890940804175,30.5 83.94566364356152,34 84.28764217607495,37.5 84.70455399114121,41 85.09659525149186,44.5 85.21610540166354,48 84.8259381657138,51.5 83.86197269498713,55 82.50391216323959,58.5 81.11124483001812,62 80.05921257839447,65.5 79.56731572438446,69 79.61663537276267,72.5 80,76 78.33949854203684,79.5 76.85664857311083,83 75.40307656576763,86.5 73.98289439167597,90 72.79313892772464,93.5 72.13506955270464,97 72.24582668067312,100.5 73.14826451697253,104 74.60793221169959,107.5 76.22516555676783,111 77.61260516492517,114.5 78.55948654957662,118 79.09231475556622,121.5 79.40214062224645,125 79.68611240308822,128.5 80,132 78.39862995236113,135.5 76.42254816279701,139 74.39602452940731,142.5 72.6813411067831,146 71.50713053184847,149.5 70.8727131712067,153 70.58342645144677,156.5 70.39547200759529,160 70.18474210586723,163.5 70.03996768715234,167 70.22468277481165,170.5 71.02914660821952,174 72.59770778396822,177.5 74.83153762133989,181 77.42281233689096,184.5 80,188 77.30730694953031,191.5 74.88381510996874,195 72.99530120527871,198.5 71.75381118102068,202 71.04292304820366,205.5 70.56660634217269,209 69.995896748065,212.5 69.13047414429498,216 67.98333046684743,219.5 66.74133729360597,223 65.62664137610143,226.5 64.74130040023356,230 63.986852345503706,233.5 63.10622905380658,237 61.82355414539436,240.5 60,244 59.31684166827603,247.5 58.73521200020389,251 58.41043453177938,254.5 58.41971301165895,258 58.669073342931526,261.5 58.89644841287629,265 58.77368372240652,268.5 58.05215396172707,272 56.67054876548151,275.5 54.76460191730091,279 52.57479819894549,282.5 50.30658553009958,286 48.02423009891204,289.5 45.638720967102465,293 42.99429801682595,296.5 40,300 37.691205123944606,301.5 35.139438269704996,303 32.38449107827158,304.5 29.608970405971128,306 27.07314438259231,307.5 24.999463614465675,309 23.472044643960388,310.5 22.408445332036415,312 21.61957035446134,313.5 20.92272007114451,315 20.242324549667558,316.5 19.640580336668286,318 19.26151378506097,319.5 19.222749659595173,321 19.51978059494451,322.5 20,324 20.071112606306272,326.25 20.168146085786613,328.5 20.09361258307451,330.75 19.704017838330365,333 18.972558998274252,335.25 17.986731398311207,337.5 16.882512927243887,339.75 15.75386420562966,342 14.590747087543972,344.25 13.282215695153207,346.5 11.683078346274067,348.75 9.705407195953118,351 7.38154521398701,353.25 4.861768001178702,355.5 2.347725947705601,357.75 6.151954668652996e-16,360 0,360" fill="url(#area-448)"/>
</svg>