<svg xmlns="http://www.w3.org/2000/svg" viewBox="0 0 100 352" preserveAspectRatio="none">
  <defs>
    <linearGradient id="area-448" x1="0%" y1="0%" x2="100%" y2="0%">
      <stop offset="0%" stop-color="rgb(6, 182, 212)" stop-opacity="0"/>
      <stop offset="50%" stop-color="rgb(6, 182, 212)" stop-opacity="0"/>
      <stop offset="75%" stop-color="rgb(6, 182, 212)" stop-opacity="0.1"/>
      <stop offset="90%" stop-color="rgb(6, 182, 212)" stop-opacity="0.18"/>
      <stop offset="100%" stop-color="rgb(6, 182, 212)" stop-opacity="0.25"/>
    </linearGradient>
    <linearGradient id="spray-448" x1="0" y1="0" x2="100" y2="0" gradientUnits="userSpaceOnUse">
      <stop offset="0%" stop-color="rgb(37, 99, 235)" stop-opacity="0"/>
      <stop offset="30%" stop-color="rgb(37, 99, 235)" stop-opacity="0.3"/>
      <stop offset="50%" stop-color="rgb(37, 99, 235)" stop-opacity="0.7"/>
      <stop offset="65%" stop-color="rgb(37, 99, 235)" stop-opacity="1"/>
      <stop offset="82%" stop-color="rgb(6, 182, 212)" stop-opacity="1"/>
      <stop offset="100%" stop-color="rgb(6, 182, 212)" stop-opacity="1"/>
    </linearGradient>
    <!-- Opacity fade mask (bottom fades out - less fade) -->
    <mask id="fade-bottom-448">
      <linearGradient id="fade-gradient-448" x1="0" y1="0" x2="0" y2="1">
        <stop offset="0%" stop-color="white"/>
        <stop offset="75%" stop-color="white"/>
        <stop offset="90%" stop-color="rgb(200,200,200)"/>
        <stop offset="97%" stop-color="rgb(140,140,140)"/>
        <stop offset="100%" stop-color="rgb(80,80,80)"/>
      </linearGradient>
      <rect x="0" y="0" width="100" height="352" fill="url(#fade-gradient-448)"/>
    </mask>
    <!-- Progressive blur mask: black at top (show sharp), white at bottom (show blur) -->
    <linearGradient id="blur-reveal-448" x1="0" y1="0" x2="0" y2="1">
      <stop offset="0%" stop-color="black"/>
      <stop offset="60%" stop-color="black"/>
      <stop offset="85%" stop-color="white"/>
      <stop offset="100%" stop-color="white"/>
    </linearGradient>
    <mask id="blur-mask-448">
      <rect x="0" y="0" width="100" height="352" fill="url(#blur-reveal-448)"/>
    </mask>
    <!-- Sharp reveal mask: opposite of blur mask -->
    <linearGradient id="sharp-reveal-448" x1="0" y1="0" x2="0" y2="1">
      <stop offset="0%" stop-color="white"/>
      <stop offset="60%" stop-color="white"/>
      <stop offset="85%" stop-color="black"/>
      <stop offset="100%" stop-color="black"/>
    </linearGradient>
    <mask id="sharp-mask-448">
      <rect x="0" y="0" width="100" height="352" fill="url(#sharp-reveal-448)"/>
    </mask>
    <filter id="blur-448" x="-20%" y="-20%" width="140%" height="140%">
      <feGaussianBlur stdDeviation="2"/>
    </filter>
  </defs>
  <!-- Layer 1: Blurred version (visible at bottom through mask) -->
  <g mask="url(#blur-mask-448)" filter="url(#blur-448)">
    <polygon points="0,0 80,0 80,20 81.7364233849007,23.5 82.90851287322614,27 83.56890940804175,30.5 83.94566364356152,34 84.28764217607495,37.5 84.70455399114121,41 85.09659525149186,44.5 85.21610540166354,48 84.8259381657138,51.5 83.86197269498713,55 82.50391216323959,58.5 81.11124483001812,62 80.05921257839447,65.5 79.56731572438446,69 79.61663537276267,72.5 80,76 78.33949854203684,79.5 76.85664857311083,83 75.40307656576763,86.5 73.98289439167597,90 72.79313892772464,93.5 72.13506955270464,97 72.24582668067312,100.5 73.14826451697253,104 74.60793221169959,107.5 76.22516555676783,111 77.61260516492517,114.5 78.55948654957662,118 79.09231475556622,121.5 79.40214062224645,125 79.68611240308822,128.5 80,132 78.39862995236113,135.5 76.42254816279701,139 74.39602452940731,142.5 72.6813411067831,146 71.50713053184847,149.5 70.8727131712067,153 70.58342645144677,156.5 70.39547200759529,160 70.18474210586723,163.5 70.03996768715234,167 70.22468277481165,170.5 71.02914660821952,174 72.59770778396822,177.5 74.83153762133989,181 77.42281233689096,184.5 80,188 77.30730694953031,191.5 74.88381510996874,195 72.99530120527871,198.5 71.75381118102068,202 71.04292304820366,205.5 70.56660634217269,209 69.995896748065,212.5 69.13047414429498,216 67.98333046684743,219.5 66.74133729360597,223 65.62664137610143,226.5 64.74130040023356,230 63.986852345503706,233.5 63.10622905380658,237 61.82355414539436,240.5 60,244 59.31684166827603,247.5 58.73521200020389,251 58.41043453177938,254.5 58.41971301165895,258 58.669073342931526,261.5 58.89644841287629,265 58.77368372240652,268.5 58.05215396172707,272 56.67054876548151,275.5 54.76460191730091,279 52.57479819894549,282.5 50.30658553009958,286 48.02423009891204,289.5 45.638720967102465,293 42.99429801682595,296.5 40,300 38.83167461952508,303.25 37.395242228639994,306.5 35.734610844989334,309.75 34.05127768934745,313 32.63243518079152,316.25 31.72354605734143,319.5 31.417428572645942,322.75 31.62311209052294,326 32.131939701474586,329.25 32.74231180264222,332.5 33.37084088239179,335.75 34.086157612875354,339 35.04718762489486,342.25 36.38372376231192,345.5 38.09079238062842,348.75 40,352 0,352" fill="url(#spray-448)" fill-opacity="0.7" mask="url(#fade-bottom-448)"/>
    <polygon points="0,0 80,0 80,20 81.7364233849007,23.5 82.90851287322614,27 83.56890940804175,30.5 83.94566364356152,34 84.28764217607495,37.5 84.70455399114121,41 85.09659525149186,44.5 85.21610540166354,48 84.8259381657138,51.5 83.86197269498713,55 82.50391216323959,58.5 81.11124483001812,62 80.05921257839447,65.5 79.56731572438446,69 79.61663537276267,72.5 80,76 78.33949854203684,79.5 76.85664857311083,83 75.40307656576763,86.5 73.98289439167597,90 72.79313892772464,93.5 72.13506955270464,97 72.24582668067312,100.5 73.14826451697253,104 74.60793221169959,107.5 76.22516555676783,111 77.61260516492517,114.5 78.55948654957662,118 79.09231475556622,121.5 79.40214062224645,125 79.68611240308822,128.5 80,132 78.39862995236113,135.5 76.42254816279701,139 74.39602452940731,142.5 72.6813411067831,146 71.50713053184847,149.5 70.8727131712067,153 70.58342645144677,156.5 70.39547200759529,160 70.18474210586723,163.5 70.03996768715234,167 70.22468277481165,170.5 71.02914660821952,174 72.59770778396822,177.5 74.83153762133989,181 77.42281233689096,184.5 80,188 77.30730694953031,191.5 74.88381510996874,195 72.99530120527871,198.5 71.75381118102068,202 71.04292304820366,205.5 70.56660634217269,209 69.995896748065,212.5 69.13047414429498,216 67.98333046684743,219.5 66.74133729360597,223 65.62664137610143,226.5 64.74130040023356,230 63.986852345503706,233.5 63.10622905380658,237 61.82355414539436,240.5 60,244 59.31684166827603,247.5 58.73521200020389,251 58.41043453177938,254.5 58.41971301165895,258 58.669073342931526,261.5 58.89644841287629,265 58.77368372240652,268.5 58.05215396172707,272 56.67054876548151,275.5 54.76460191730091,279 52.57479819894549,282.5 50.30658553009958,286 48.02423009891204,289.5 45.638720967102465,293 42.99429801682595,296.5 40,300 38.83167461952508,303.25 37.395242228639994,306.5 35.734610844989334,309.75 34.05127768934745,313 32.63243518079152,316.25 31.72354605734143,319.5 31.417428572645942,322.75 31.62311209052294,326 32.131939701474586,329.25 32.74231180264222,332.5 33.37084088239179,335.75 34.086157612875354,339 35.04718762489486,342.25 36.38372376231192,345.5 38.09079238062842,348.75 40,352 0,352" fill="url(#area-448)"/>
  </g>
  <!-- Layer 2: Sharp version (visible at top through mask) -->
  <g mask="url(#sharp-mask-448)">
    <polygon points="0,0 80,0 80,20 81.7364233849007,23.5 82.90851287322614,27 83.56890940804175,30.5 83.94566364356152,34 84.28764217607495,37.5 84.70455399114121,41 85.09659525149186,44.5 85.21610540166354,48 84.8259381657138,51.5 83.86197269498713,55 82.50391216323959,58.5 81.11124483001812,62 80.05921257839447,65.5 79.56731572438446,69 79.61663537276267,72.5 80,76 78.33949854203684,79.5 76.85664857311083,83 75.40307656576763,86.5 73.98289439167597,90 72.79313892772464,93.5 72.13506955270464,97 72.24582668067312,100.5 73.14826451697253,104 74.60793221169959,107.5 76.22516555676783,111 77.61260516492517,114.5 78.55948654957662,118 79.09231475556622,121.5 79.40214062224645,125 79.68611240308822,128.5 80,132 78.39862995236113,135.5 76.42254816279701,139 74.39602452940731,142.5 72.6813411067831,146 71.50713053184847,149.5 70.8727131712067,153 70.58342645144677,156.5 70.39547200759529,160 70.18474210586723,163.5 70.03996768715234,167 70.22468277481165,170.5 71.02914660821952,174 72.59770778396822,177.5 74.83153762133989,181 77.42281233689096,184.5 80,188 77.30730694953031,191.5 74.88381510996874,195 72.99530120527871,198.5 71.75381118102068,202 71.04292304820366,205.5 70.56660634217269,209 69.995896748065,212.5 69.13047414429498,216 67.98333046684743,219.5 66.74133729360597,223 65.62664137610143,226.5 64.74130040023356,230 63.986852345503706,233.5 63.10622905380658,237 61.82355414539436,240.5 60,244 59.31684166827603,247.5 58.73521200020389,251 58.41043453177938,254.5 58.41971301165895,258 58.669073342931526,261.5 58.89644841287629,265 58.77368372240652,268.5 58.05215396172707,272 56.67054876548151,275.5 54.76460191730091,279 52.57479819894549,282.5 50.30658553009958,286 48.02423009891204,289.5 45.638720967102465,293 42.99429801682595,296.5 40,300 38.83167461952508,303.25 37.395242228639994,306.5 35.734610844989334,309.75 34.05127768934745,313 32.63243518079152,316.25 31.72354605734143,319.5 31.417428572645942,322.75 31.62311209052294,326 32.131939701474586,329.25 32.74231180264222,332.5 33.37084088239179,335.75 34.086157612875354,339 35.04718762489486,342.25 36.38372376231192,345.5 38.09079238062842,348.75 40,352 0,352" fill="url(#spray-448)" fill-opacity="0.7" mask="url(#fade-bottom-448)"/>
    <polygon points="0,0 80,0 80,20 81.7364233849007,23.5 82.90851287322614,27 83.56890940804175,30.5 83.94566364356152,34 84.28764217607495,37.5 84.70455399114121,41 85.09659525149186,44.5 85.21610540166354,48 84.8259381657138,51.5 83.86197269498713,55 82.50391216323959,58.5 81.11124483001812,62 80.05921257839447,65.5 79.56731572438446,69 79.61663537276267,72.5 80,76 78.33949854203684,79.5 76.85664857311083,83 75.40307656576763,86.5 73.98289439167597,90 72.79313892772464,93.5 72.13506955270464,97 72.24582668067312,100.5 73.14826451697253,104 74.60793221169959,107.5 76.22516555676783,111 77.61260516492517,114.5 78.55948654957662,118 79.09231475556622,121.5 79.40214062224645,125 79.68611240308822,128.5 80,132 78.39862995236113,135.5 76.42254816279701,139 74.39602452940731,142.5 72.6813411067831,146 71.50713053184847,149.5 70.8727131712067,153 70.58342645144677,156.5 70.39547200759529,160 70.18474210586723,163.5 70.03996768715234,167 70.22468277481165,170.5 71.02914660821952,174 72.59770778396822,177.5 74.83153762133989,181 77.42281233689096,184.5 80,188 77.30730694953031,191.5 74.88381510996874,195 72.99530120527871,198.5 71.75381118102068,202 71.04292304820366,205.5 70.56660634217269,209 69.995896748065,212.5 69.13047414429498,216 67.98333046684743,219.5 66.74133729360597,223 65.62664137610143,226.5 64.74130040023356,230 63.986852345503706,233.5 63.10622905380658,237 61.82355414539436,240.5 60,244 59.31684166827603,247.5 58.73521200020389,251 58.41043453177938,254.5 58.41971301165895,258 58.669073342931526,261.5 58.89644841287629,265 58.77368372240652,268.5 58.05215396172707,272 56.67054876548151,275.5 54.76460191730091,279 52.57479819894549,282.5 50.30658553009958,286 48.02423009891204,289.5 45.638720967102465,293 42.99429801682595,296.5 40,300 38.83167461952508,303.25 37.395242228639994,306.5 35.734610844989334,309.75 34.05127768934745,313 32.63243518079152,316.25 31.72354605734143,319.5 31.417428572645942,322.75 31.62311209052294,326 32.131939701474586,329.25 32.74231180264222,332.5 33.37084088239179,335.75 34.086157612875354,339 35.04718762489486,342.25 36.38372376231192,345.5 38.09079238062842,348.75 40,352 0,352" fill="url(#area-448)"/>
  </g>
</svg>