<svg xmlns="http://www.w3.org/2000/svg" viewBox="0 0 100 464" preserveAspectRatio="none">
  <defs>
    <linearGradient id="area-566" x1="0%" y1="0%" x2="100%" y2="0%">
      <stop offset="0%" stop-color="rgb(6, 182, 212)" stop-opacity="0"/>
      <stop offset="50%" stop-color="rgb(6, 182, 212)" stop-opacity="0"/>
      <stop offset="75%" stop-color="rgb(6, 182, 212)" stop-opacity="0.1"/>
      <stop offset="90%" stop-color="rgb(6, 182, 212)" stop-opacity="0.18"/>
      <stop offset="100%" stop-color="rgb(6, 182, 212)" stop-opacity="0.25"/>
    </linearGradient>
    <linearGradient id="spray-566" x1="0" y1="0" x2="100" y2="0" gradientUnits="userSpaceOnUse">
      <stop offset="0%" stop-color="rgb(37, 99, 235)" stop-opacity="0"/>
      <stop offset="30%" stop-color="rgb(37, 99, 235)" stop-opacity="0.3"/>
      <stop offset="50%" stop-color="rgb(37, 99, 235)" stop-opacity="0.7"/>
      <stop offset="65%" stop-color="rgb(37, 99, 235)" stop-opacity="1"/>
      <stop offset="82%" stop-color="rgb(6, 182, 212)" stop-opacity="1"/>
      <stop offset="100%" stop-color="rgb(6, 182, 212)" stop-opacity="1"/>
    </linearGradient>
    <!-- Opacity fade mask (bottom fades out - less fade) -->
    <mask id="fade-bottom-566">
      <linearGradient id="fade-gradient-566" x1="0" y1="0" x2="0" y2="1">
        <stop offset="0%" stop-color="white"/>
        <stop offset="75%" stop-color="white"/>
        <stop offset="90%" stop-color="rgb(200,200,200)"/>
        <stop offset="97%" stop-color="rgb(140,140,140)"/>
        <stop offset="100%" stop-color="rgb(80,80,80)"/>
      </linearGradient>
      <rect x="0" y="0" width="100" height="464" fill="url(#fade-gradient-566)"/>
    </mask>
    <!-- Progressive blur mask: black at top (show sharp), white at bottom (show blur) -->
    <linearGradient id="blur-reveal-566" x1="0" y1="0" x2="0" y2="1">
      <stop offset="0%" stop-color="black"/>
      <stop offset="60%" stop-color="black"/>
      <stop offset="85%" stop-color="white"/>
      <stop offset="100%" stop-color="white"/>
    </linearGradient>
    <mask id="blur-mask-566">
      <rect x="0" y="0" width="100" height="464" fill="url(#blur-reveal-566)"/>
    </mask>
    <!-- Sharp reveal mask: opposite of blur mask -->
    <linearGradient id="sharp-reveal-566" x1="0" y1="0" x2="0" y2="1">
      <stop offset="0%" stop-color="white"/>
      <stop offset="60%" stop-color="white"/>
      <stop offset="85%" stop-color="black"/>
      <stop offset="100%" stop-color="black"/>
    </linearGradient>
    <mask id="sharp-mask-566">
      <rect x="0" y="0" width="100" height="464" fill="url(#sharp-reveal-566)"/>
    </mask>
    <filter id="blur-566" x="-20%" y="-20%" width="140%" height="140%">
      <feGaussianBlur stdDeviation="2"/>
    </filter>
  </defs>
  <!-- Layer 1: Blurred version (visible at bottom through mask) -->
  <g mask="url(#blur-mask-566)" filter="url(#blur-566)">
    <polygon points="0,0 60,0 60,20 60.55974731752938,23.5 61.54001985277404,27 62.892467685763805,30.5 64.38029903351101,34 65.67838847335543,37.5 66.52649061286402,41 66.848100203696,44.5 66.76695277567175,48 66.51243895459577,51.5 66.26968823051526,55 66.06206431865479,58.5 65.73460117573562,62 65.04774224835361,65.5 63.82623713260918,69 62.07591199032177,72.5 60,76 59.15796138020537,79.5 57.99597933978911,83 56.47177595818247,86.5 54.737459608136135,90 53.10082800772996,93.5 51.89318279585936,97 51.31756411391314,100.5 51.36360038265937,104 51.837132902021104,107.5 52.48656044490172,111 53.15211563418654,114.5 53.85158047847971,118 54.75365548074456,121.5 56.05621369219187,125 57.84235760347659,128.5 60,132 60.68289741627183,135.5 61.14846065562427,139 61.15300238798033,142.5 60.60766059343001,146 59.61419751776809,149.5 58.39579324977573,153 57.16272439760965,156.5 55.99096285539101,160 54.784293173208255,163.5 53.341808072271874,167 51.491067447708865,170.5 49.208793172802125,174 46.65817362267546,177.5 44.12043548828934,181 41.85987077751857,184.5 40,188 39.59571664550816,191.5 39.310977450339024,195 39.239490651911005,198.5 39.3618961431256,202 39.51244393220384,205.5 39.43260854180865,209 38.88374348380911,212.5 37.75575608891464,216 36.11030699197167,219.5 34.13442318300786,223 32.031878992464776,226.5 29.915215217392728,230 27.760127421347843,233.5 25.446896408758352,237 22.862295888320062,240.5 20,244 19.89233703727897,247.5 19.763418380934237,251 19.495056211273862,254.5 18.96995269350867,258 18.165611446191487,261.5 17.199003629770953,265 16.2928910316613,268.5 15.680314736450988,272 15.500034978202262,275.5 15.741388074211246,279 16.26872649390879,282.5 16.909819193285653,286 17.556029163930486,289.5 18.216061966891832,293 18.993024085318,296.5 20,300 20.25469753892762,303.5 20.356311990451783,307 20.167043583207146,310.5 19.64156412817631,314 18.875117568192355,317.5 18.073768186742637,321 17.46162778039875,324.5 17.176870775612738,328 17.215230234880202,331.5 17.4523604529592,335 17.73086546258655,338.5 17.960541118866914,342 18.17320067381796,345.5 18.500491561374393,349 19.08849071293468,352.5 20,356 18.707597626362713,359.5 17.547376498717504,363 16.440898283426975,366.5 15.302837986310397,370 14.132015165378066,373.5 13.051260719028473,377 12.269608852879891,380.5 11.986065949194224,384 12.289007668090928,387.5 13.108655466101737,391 14.250005515173829,394.5 15.487535515209647,398 16.667851741915594,401.5 17.76264349563027,405 18.844014426739065,408.5 20,412 18.781884993898963,415.25 17.873829117365368,418.5 17.26478524413036,421.75 16.83593632462469,425 16.448426129436456,428.25 16.03945387457701,431.5 15.669351595855293,434.75 15.49098257448386,438 15.658475779408402,441.25 16.22820345984717,444.5 17.109975388846436,447.75 18.09764874746129,451 18.96251979867474,454.25 19.556731166430488,457.5 19.86856958247385,460.75 20,464 0,464" fill="url(#spray-566)" fill-opacity="0.7" mask="url(#fade-bottom-566)"/>
    <polygon points="0,0 60,0 60,20 60.55974731752938,23.5 61.54001985277404,27 62.892467685763805,30.5 64.38029903351101,34 65.67838847335543,37.5 66.52649061286402,41 66.848100203696,44.5 66.76695277567175,48 66.51243895459577,51.5 66.26968823051526,55 66.06206431865479,58.5 65.73460117573562,62 65.04774224835361,65.5 63.82623713260918,69 62.07591199032177,72.5 60,76 59.15796138020537,79.5 57.99597933978911,83 56.47177595818247,86.5 54.737459608136135,90 53.10082800772996,93.5 51.89318279585936,97 51.31756411391314,100.5 51.36360038265937,104 51.837132902021104,107.5 52.48656044490172,111 53.15211563418654,114.5 53.85158047847971,118 54.75365548074456,121.5 56.05621369219187,125 57.84235760347659,128.5 60,132 60.68289741627183,135.5 61.14846065562427,139 61.15300238798033,142.5 60.60766059343001,146 59.61419751776809,149.5 58.39579324977573,153 57.16272439760965,156.5 55.99096285539101,160 54.784293173208255,163.5 53.341808072271874,167 51.491067447708865,170.5 49.208793172802125,174 46.65817362267546,177.5 44.12043548828934,181 41.85987077751857,184.5 40,188 39.59571664550816,191.5 39.310977450339024,195 39.239490651911005,198.5 39.3618961431256,202 39.51244393220384,205.5 39.43260854180865,209 38.88374348380911,212.5 37.75575608891464,216 36.11030699197167,219.5 34.13442318300786,223 32.031878992464776,226.5 29.915215217392728,230 27.760127421347843,233.5 25.446896408758352,237 22.862295888320062,240.5 20,244 19.89233703727897,247.5 19.763418380934237,251 19.495056211273862,254.5 18.96995269350867,258 18.165611446191487,261.5 17.199003629770953,265 16.2928910316613,268.5 15.680314736450988,272 15.500034978202262,275.5 15.741388074211246,279 16.26872649390879,282.5 16.909819193285653,286 17.556029163930486,289.5 18.216061966891832,293 18.993024085318,296.5 20,300 20.25469753892762,303.5 20.356311990451783,307 20.167043583207146,310.5 19.64156412817631,314 18.875117568192355,317.5 18.073768186742637,321 17.46162778039875,324.5 17.176870775612738,328 17.215230234880202,331.5 17.4523604529592,335 17.73086546258655,338.5 17.960541118866914,342 18.17320067381796,345.5 18.500491561374393,349 19.08849071293468,352.5 20,356 18.707597626362713,359.5 17.547376498717504,363 16.440898283426975,366.5 15.302837986310397,370 14.132015165378066,373.5 13.051260719028473,377 12.269608852879891,380.5 11.986065949194224,384 12.289007668090928,387.5 13.108655466101737,391 14.250005515173829,394.5 15.487535515209647,398 16.667851741915594,401.5 17.76264349563027,405 18.844014426739065,408.5 20,412 18.781884993898963,415.25 17.873829117365368,418.5 17.26478524413036,421.75 16.83593632462469,425 16.448426129436456,428.25 16.03945387457701,431.5 15.669351595855293,434.75 15.49098257448386,438 15.658475779408402,441.25 16.22820345984717,444.5 17.109975388846436,447.75 18.09764874746129,451 18.96251979867474,454.25 19.556731166430488,457.5 19.86856958247385,460.75 20,464 0,464" fill="url(#area-566)"/>
  </g>
  <!-- Layer 2: Sharp version (visible at top through mask) -->
  <g mask="url(#sharp-mask-566)">
    <polygon points="0,0 60,0 60,20 60.55974731752938,23.5 61.54001985277404,27 62.892467685763805,30.5 64.38029903351101,34 65.67838847335543,37.5 66.52649061286402,41 66.848100203696,44.5 66.76695277567175,48 66.51243895459577,51.5 66.26968823051526,55 66.06206431865479,58.5 65.73460117573562,62 65.04774224835361,65.5 63.82623713260918,69 62.07591199032177,72.5 60,76 59.15796138020537,79.5 57.99597933978911,83 56.47177595818247,86.5 54.737459608136135,90 53.10082800772996,93.5 51.89318279585936,97 51.31756411391314,100.5 51.36360038265937,104 51.837132902021104,107.5 52.48656044490172,111 53.15211563418654,114.5 53.85158047847971,118 54.75365548074456,121.5 56.05621369219187,125 57.84235760347659,128.5 60,132 60.68289741627183,135.5 61.14846065562427,139 61.15300238798033,142.5 60.60766059343001,146 59.61419751776809,149.5 58.39579324977573,153 57.16272439760965,156.5 55.99096285539101,160 54.784293173208255,163.5 53.341808072271874,167 51.491067447708865,170.5 49.208793172802125,174 46.65817362267546,177.5 44.12043548828934,181 41.85987077751857,184.5 40,188 39.59571664550816,191.5 39.310977450339024,195 39.239490651911005,198.5 39.3618961431256,202 39.51244393220384,205.5 39.43260854180865,209 38.88374348380911,212.5 37.75575608891464,216 36.11030699197167,219.5 34.13442318300786,223 32.031878992464776,226.5 29.915215217392728,230 27.760127421347843,233.5 25.446896408758352,237 22.862295888320062,240.5 20,244 19.89233703727897,247.5 19.763418380934237,251 19.495056211273862,254.5 18.96995269350867,258 18.165611446191487,261.5 17.199003629770953,265 16.2928910316613,268.5 15.680314736450988,272 15.500034978202262,275.5 15.741388074211246,279 16.26872649390879,282.5 16.909819193285653,286 17.556029163930486,289.5 18.216061966891832,293 18.993024085318,296.5 20,300 20.25469753892762,303.5 20.356311990451783,307 20.167043583207146,310.5 19.64156412817631,314 18.875117568192355,317.5 18.073768186742637,321 17.46162778039875,324.5 17.176870775612738,328 17.215230234880202,331.5 17.4523604529592,335 17.73086546258655,338.5 17.960541118866914,342 18.17320067381796,345.5 18.500491561374393,349 19.08849071293468,352.5 20,356 18.707597626362713,359.5 17.547376498717504,363 16.440898283426975,366.5 15.302837986310397,370 14.132015165378066,373.5 13.051260719028473,377 12.269608852879891,380.5 11.986065949194224,384 12.289007668090928,387.5 13.108655466101737,391 14.250005515173829,394.5 15.487535515209647,398 16.667851741915594,401.5 17.76264349563027,405 18.844014426739065,408.5 20,412 18.781884993898963,415.25 17.873829117365368,418.5 17.26478524413036,421.75 16.83593632462469,425 16.448426129436456,428.25 16.03945387457701,431.5 15.669351595855293,434.75 15.49098257448386,438 15.658475779408402,441.25 16.22820345984717,444.5 17.109975388846436,447.75 18.09764874746129,451 18.96251979867474,454.25 19.556731166430488,457.5 19.86856958247385,460.75 20,464 0,464" fill="url(#spray-566)" fill-opacity="0.7" mask="url(#fade-bottom-566)"/>
    <polygon points="0,0 60,0 60,20 60.55974731752938,23.5 61.54001985277404,27 62.892467685763805,30.5 64.38029903351101,34 65.67838847335543,37.5 66.52649061286402,41 66.848100203696,44.5 66.76695277567175,48 66.51243895459577,51.5 66.26968823051526,55 66.06206431865479,58.5 65.73460117573562,62 65.04774224835361,65.5 63.82623713260918,69 62.07591199032177,72.5 60,76 59.15796138020537,79.5 57.99597933978911,83 56.47177595818247,86.5 54.737459608136135,90 53.10082800772996,93.5 51.89318279585936,97 51.31756411391314,100.5 51.36360038265937,104 51.837132902021104,107.5 52.48656044490172,111 53.15211563418654,114.5 53.85158047847971,118 54.75365548074456,121.5 56.05621369219187,125 57.84235760347659,128.5 60,132 60.68289741627183,135.5 61.14846065562427,139 61.15300238798033,142.5 60.60766059343001,146 59.61419751776809,149.5 58.39579324977573,153 57.16272439760965,156.5 55.99096285539101,160 54.784293173208255,163.5 53.341808072271874,167 51.491067447708865,170.5 49.208793172802125,174 46.65817362267546,177.5 44.12043548828934,181 41.85987077751857,184.5 40,188 39.59571664550816,191.5 39.310977450339024,195 39.239490651911005,198.5 39.3618961431256,202 39.51244393220384,205.5 39.43260854180865,209 38.88374348380911,212.5 37.75575608891464,216 36.11030699197167,219.5 34.13442318300786,223 32.031878992464776,226.5 29.915215217392728,230 27.760127421347843,233.5 25.446896408758352,237 22.862295888320062,240.5 20,244 19.89233703727897,247.5 19.763418380934237,251 19.495056211273862,254.5 18.96995269350867,258 18.165611446191487,261.5 17.199003629770953,265 16.2928910316613,268.5 15.680314736450988,272 15.500034978202262,275.5 15.741388074211246,279 16.26872649390879,282.5 16.909819193285653,286 17.556029163930486,289.5 18.216061966891832,293 18.993024085318,296.5 20,300 20.25469753892762,303.5 20.356311990451783,307 20.167043583207146,310.5 19.64156412817631,314 18.875117568192355,317.5 18.073768186742637,321 17.46162778039875,324.5 17.176870775612738,328 17.215230234880202,331.5 17.4523604529592,335 17.73086546258655,338.5 17.960541118866914,342 18.17320067381796,345.5 18.500491561374393,349 19.08849071293468,352.5 20,356 18.707597626362713,359.5 17.547376498717504,363 16.440898283426975,366.5 15.302837986310397,370 14.132015165378066,373.5 13.051260719028473,377 12.269608852879891,380.5 11.986065949194224,384 12.289007668090928,387.5 13.108655466101737,391 14.250005515173829,394.5 15.487535515209647,398 16.667851741915594,401.5 17.76264349563027,405 18.844014426739065,408.5 20,412 18.781884993898963,415.25 17.873829117365368,418.5 17.26478524413036,421.75 16.83593632462469,425 16.448426129436456,428.25 16.03945387457701,431.5 15.669351595855293,434.75 15.49098257448386,438 15.658475779408402,441.25 16.22820345984717,444.5 17.109975388846436,447.75 18.09764874746129,451 18.96251979867474,454.25 19.556731166430488,457.5 19.86856958247385,460.75 20,464 0,464" fill="url(#area-566)"/>
  </g>
</svg>