<svg xmlns="http://www.w3.org/2000/svg" viewBox="0 0 100 472" preserveAspectRatio="none">
  <defs>
    <linearGradient id="area-566" x1="0%" y1="0%" x2="100%" y2="0%">
      <stop offset="0%" stop-color="rgb(6, 182, 212)" stop-opacity="0"/>
      <stop offset="55%" stop-color="rgb(6, 182, 212)" stop-opacity="0"/>
      <stop offset="75%" stop-color="rgb(6, 182, 212)" stop-opacity="0.1"/>
      <stop offset="90%" stop-color="rgb(6, 182, 212)" stop-opacity="0.18"/>
      <stop offset="100%" stop-color="rgb(6, 182, 212)" stop-opacity="0.25"/>
    </linearGradient>
    <linearGradient id="spray-566" x1="0" y1="0" x2="100" y2="0" gradientUnits="userSpaceOnUse">
      <stop offset="0%" stop-color="rgb(37, 99, 235)" stop-opacity="0"/>
      <stop offset="35%" stop-color="rgb(37, 99, 235)" stop-opacity="0.2"/>
      <stop offset="50%" stop-color="rgb(37, 99, 235)" stop-opacity="0.6"/>
      <stop offset="65%" stop-color="rgb(37, 99, 235)" stop-opacity="1"/>
      <stop offset="82%" stop-color="rgb(6, 182, 212)" stop-opacity="1"/>
      <stop offset="100%" stop-color="rgb(6, 182, 212)" stop-opacity="1"/>
    </linearGradient>
  </defs>
  <polygon points="0,0 80,0 80,20 79.35393789522907,23.5 79.16160036746673,27 79.37082039779779,30.5 79.72611211510399,34 79.87668230019928,37.5 79.54173987177433,41 78.63873969346147,44.5 77.30118588954056,48 75.77657887206385,51.5 74.26466361713489,55 72.79064834381175,58.5 71.18733284750422,62 69.1962482153289,65.5 66.6283084851836,69 63.48979977903139,72.5 60,76 59.15796138020537,79.5 57.99597933978911,83 56.47177595818247,86.5 54.737459608136135,90 53.10082800772996,93.5 51.89318279585936,97 51.31756411391314,100.5 51.36360038265937,104 51.837132902021104,107.5 52.48656044490172,111 53.15211563418654,114.5 53.85158047847971,118 54.75365548074456,121.5 56.05621369219187,125 57.84235760347659,128.5 60,132 60.68289741627183,135.5 61.14846065562427,139 61.15300238798033,142.5 60.60766059343001,146 59.61419751776809,149.5 58.39579324977573,153 57.16272439760965,156.5 55.99096285539101,160 54.784293173208255,163.5 53.341808072271874,167 51.491067447708865,170.5 49.208793172802125,174 46.65817362267546,177.5 44.12043548828934,181 41.85987077751857,184.5 40,188 39.59571664550816,191.5 39.310977450339024,195 39.239490651911005,198.5 39.3618961431256,202 39.51244393220384,205.5 39.43260854180865,209 38.88374348380911,212.5 37.75575608891464,216 36.11030699197167,219.5 34.13442318300786,223 32.031878992464776,226.5 29.915215217392728,230 27.760127421347843,233.5 25.446896408758352,237 22.862295888320062,240.5 20,244 19.89233703727897,247.5 19.763418380934237,251 19.495056211273862,254.5 18.96995269350867,258 18.165611446191487,261.5 17.199003629770953,265 16.2928910316613,268.5 15.680314736450988,272 15.500034978202262,275.5 15.741388074211246,279 16.26872649390879,282.5 16.909819193285653,286 17.556029163930486,289.5 18.216061966891832,293 18.993024085318,296.5 20,300 20.25469753892762,303.5 20.356311990451783,307 20.167043583207146,310.5 19.64156412817631,314 18.875117568192355,317.5 18.073768186742637,321 17.46162778039875,324.5 17.176870775612738,328 17.215230234880202,331.5 17.4523604529592,335 17.73086546258655,338.5 17.960541118866914,342 18.17320067381796,345.5 18.500491561374393,349 19.08849071293468,352.5 20,356 18.707597626362713,359.5 17.547376498717504,363 16.440898283426975,366.5 15.302837986310397,370 14.132015165378066,373.5 13.051260719028473,377 12.269608852879891,380.5 11.986065949194224,384 12.289007668090928,387.5 13.108655466101737,391 14.250005515173829,394.5 15.487535515209647,398 16.667851741915594,401.5 17.76264349563027,405 18.844014426739065,408.5 20,412 18.22716085963556,413.5 16.74649282213275,415 15.54758609543053,416.5 14.518478459742495,418 13.528324621968967,419.5 12.517946920274492,421 11.54419669609441,422.5 10.751118195186715,424 10.283948330596377,425.5 10.195807106394447,427 10.401707577951449,428.5 10.707399781261598,430 10.897374425674274,431.5 10.832304368367192,433 10.501152106561898,434.5 10,436 8.356914846460413,438.25 6.557438668044479,440.5 4.700892801850028,442.75 2.964845813098491,445 1.5281319333908892,447.25 0.4879545688629543,449.5 0,451.75 0,454 0,456.25 0,458.5 0,460.75 0,463 0,465.25 0,467.5 0,469.75 0,472 0,472" fill="url(#spray-566)" fill-opacity="0.7"/>
  <polygon points="0,0 80,0 80,20 79.35393789522907,23.5 79.16160036746673,27 79.37082039779779,30.5 79.72611211510399,34 79.87668230019928,37.5 79.54173987177433,41 78.63873969346147,44.5 77.30118588954056,48 75.77657887206385,51.5 74.26466361713489,55 72.79064834381175,58.5 71.18733284750422,62 69.1962482153289,65.5 66.6283084851836,69 63.48979977903139,72.5 60,76 59.15796138020537,79.5 57.99597933978911,83 56.47177595818247,86.5 54.737459608136135,90 53.10082800772996,93.5 51.89318279585936,97 51.31756411391314,100.5 51.36360038265937,104 51.837132902021104,107.5 52.48656044490172,111 53.15211563418654,114.5 53.85158047847971,118 54.75365548074456,121.5 56.05621369219187,125 57.84235760347659,128.5 60,132 60.68289741627183,135.5 61.14846065562427,139 61.15300238798033,142.5 60.60766059343001,146 59.61419751776809,149.5 58.39579324977573,153 57.16272439760965,156.5 55.99096285539101,160 54.784293173208255,163.5 53.341808072271874,167 51.491067447708865,170.5 49.208793172802125,174 46.65817362267546,177.5 44.12043548828934,181 41.85987077751857,184.5 40,188 39.59571664550816,191.5 39.310977450339024,195 39.239490651911005,198.5 39.3618961431256,202 39.51244393220384,205.5 39.43260854180865,209 38.88374348380911,212.5 37.75575608891464,216 36.11030699197167,219.5 34.13442318300786,223 32.031878992464776,226.5 29.915215217392728,230 27.760127421347843,233.5 25.446896408758352,237 22.862295888320062,240.5 20,244 19.89233703727897,247.5 19.763418380934237,251 19.495056211273862,254.5 18.96995269350867,258 18.165611446191487,261.5 17.199003629770953,265 16.2928910316613,268.5 15.680314736450988,272 15.500034978202262,275.5 15.741388074211246,279 16.26872649390879,282.5 16.909819193285653,286 17.556029163930486,289.5 18.216061966891832,293 18.993024085318,296.5 20,300 20.25469753892762,303.5 20.356311990451783,307 20.167043583207146,310.5 19.64156412817631,314 18.875117568192355,317.5 18.073768186742637,321 17.46162778039875,324.5 17.176870775612738,328 17.215230234880202,331.5 17.4523604529592,335 17.73086546258655,338.5 17.960541118866914,342 18.17320067381796,345.5 18.500491561374393,349 19.08849071293468,352.5 20,356 18.707597626362713,359.5 17.547376498717504,363 16.440898283426975,366.5 15.302837986310397,370 14.132015165378066,373.5 13.051260719028473,377 12.269608852879891,380.5 11.986065949194224,384 12.289007668090928,387.5 13.108655466101737,391 14.250005515173829,394.5 15.487535515209647,398 16.667851741915594,401.5 17.76264349563027,405 18.844014426739065,408.5 20,412 18.22716085963556,413.5 16.74649282213275,415 15.54758609543053,416.5 14.518478459742495,418 13.528324621968967,419.5 12.517946920274492,421 11.54419669609441,422.5 10.751118195186715,424 10.283948330596377,425.5 10.195807106394447,427 10.401707577951449,428.5 10.707399781261598,430 10.897374425674274,431.5 10.832304368367192,433 10.501152106561898,434.5 10,436 8.356914846460413,438.25 6.557438668044479,440.5 4.700892801850028,442.75 2.964845813098491,445 1.5281319333908892,447.25 0.4879545688629543,449.5 0,451.75 0,454 0,456.25 0,458.5 0,460.75 0,463 0,465.25 0,467.5 0,469.75 0,472 0,472" fill="url(#area-566)"/>
</svg>