<svg xmlns="http://www.w3.org/2000/svg" viewBox="0 0 100 416" preserveAspectRatio="none">
  <defs>
    <linearGradient id="area-496" x1="0%" y1="0%" x2="100%" y2="0%">
      <stop offset="0%" stop-color="rgb(6, 182, 212)" stop-opacity="0"/>
      <stop offset="55%" stop-color="rgb(6, 182, 212)" stop-opacity="0"/>
      <stop offset="75%" stop-color="rgb(6, 182, 212)" stop-opacity="0.1"/>
      <stop offset="90%" stop-color="rgb(6, 182, 212)" stop-opacity="0.18"/>
      <stop offset="100%" stop-color="rgb(6, 182, 212)" stop-opacity="0.25"/>
    </linearGradient>
    <linearGradient id="spray-496" x1="0" y1="0" x2="100" y2="0" gradientUnits="userSpaceOnUse">
      <stop offset="0%" stop-color="rgb(37, 99, 235)" stop-opacity="0"/>
      <stop offset="35%" stop-color="rgb(37, 99, 235)" stop-opacity="0.2"/>
      <stop offset="50%" stop-color="rgb(37, 99, 235)" stop-opacity="0.6"/>
      <stop offset="65%" stop-color="rgb(37, 99, 235)" stop-opacity="1"/>
      <stop offset="82%" stop-color="rgb(6, 182, 212)" stop-opacity="1"/>
      <stop offset="100%" stop-color="rgb(6, 182, 212)" stop-opacity="1"/>
    </linearGradient>
  </defs>
  <polygon points="0,0 80,0 80,20 79.3174839685959,23.5 79.18344147602247,27 79.40014966988824,30.5 79.67789536026109,34 79.80638987886026,37.5 79.77268489429196,41 79.75591661150254,44.5 80.00167299904756,48 80.64984351711308,51.5 81.61780639631237,55 82.60925112020182,58.5 83.24618963659519,62 83.25025394185033,65.5 82.57093393533172,69 81.38953145711355,72.5 80,76 77.44144451498128,79.5 74.81787226058755,83 72.49667684542528,86.5 70.81002896260242,90 69.89815683884616,93.5 69.65352188773517,97 69.79871444329434,100.5 70.05323742508014,104 70.29267394480016,107.5 70.60833022808086,111 71.23367392836033,114.5 72.38172927735313,118 74.08954744248298,121.5 76.16160099582964,125 78.24602445413132,128.5 80,132 82.16081928619933,135.5 84.43027017693991,139 86.65338102719491,142.5 88.51324730862405,146 89.6742530645812,149.5 89.95460531150148,153 89.42777430032612,156.5 88.39236273050788,160 87.2255103124965,163.5 86.20204994884689,167 85.38104979590148,170.5 84.62175545733294,174 83.71546120469606,177.5 82.55261482048653,181 81.22474563010528,184.5 80,188 76.32864137221829,191.5 72.89673363619558,195 69.99184320020693,198.5 67.71305938538285,202 65.94073615566442,205.5 64.42743490711432,209 62.95678769521172,212.5 61.477192818986985,216 60.1318923041244,219.5 59.167577075852975,223 58.7748118536225,226.5 58.953661145670246,230 59.48348287107397,233.5 60.01537518959506,237 60.23459362593026,240.5 60,244 57.4550907983014,247.5 55.10251123669515,251 52.757460909011286,254.5 50.32980096062501,258 47.87570383112428,261.5 45.554504082583904,265 43.51595054809085,268.5 41.784737786989794,272 40.21173645875644,275.5 38.52313892796683,279 36.442046373111644,282.5 33.81495111495019,286 30.672687015342856,289.5 27.193392455690027,293 23.591635064990005,296.5 20,300 18.916156835792002,303.5 17.937375133516884,307 17.02717001908822,310.5 16.086695805526052,314 15.049981008913345,317.5 13.962439757797538,321 12.993541045324825,324.5 12.37290341490965,328 12.284093117429919,331.5 12.775672633256406,335 13.739729921097588,338.5 14.969594707230488,342 16.263175401694028,345.5 17.51272615733491,349 18.730766547137144,352.5 20,356 20.820446010704156,357.5 21.51188931272622,359 21.894646374961287,360.5 21.895651034456606,362 21.575010587178603,363.5 21.07899248519555,365 20.546891688814327,366.5 20.026226250966406,368 19.445880747520768,369.5 18.662941102727075,371 17.555830630768945,372.5 16.109187161905883,374 14.440602542198052,375.5 12.753132127366143,377 11.240603827880571,378.5 10,380 8.283699235744502,382.25 6.497300624537484,384.5 4.706034106896552,386.75 3.0619228405376013,389 1.739512441224468,391.25 0.8499485063948402,393.5 0.3830237144630404,395.75 0.21127299205615113,398 0.15461440718878183,400.25 0.06917820174059086,402.5 0,404.75 0,407 0,409.25 0,411.5 0,413.75 0,416 0,416" fill="url(#spray-496)" fill-opacity="0.7"/>
  <polygon points="0,0 80,0 80,20 79.3174839685959,23.5 79.18344147602247,27 79.40014966988824,30.5 79.67789536026109,34 79.80638987886026,37.5 79.77268489429196,41 79.75591661150254,44.5 80.00167299904756,48 80.64984351711308,51.5 81.61780639631237,55 82.60925112020182,58.5 83.24618963659519,62 83.25025394185033,65.5 82.57093393533172,69 81.38953145711355,72.5 80,76 77.44144451498128,79.5 74.81787226058755,83 72.49667684542528,86.5 70.81002896260242,90 69.89815683884616,93.5 69.65352188773517,97 69.79871444329434,100.5 70.05323742508014,104 70.29267394480016,107.5 70.60833022808086,111 71.23367392836033,114.5 72.38172927735313,118 74.08954744248298,121.5 76.16160099582964,125 78.24602445413132,128.5 80,132 82.16081928619933,135.5 84.43027017693991,139 86.65338102719491,142.5 88.51324730862405,146 89.6742530645812,149.5 89.95460531150148,153 89.42777430032612,156.5 88.39236273050788,160 87.2255103124965,163.5 86.20204994884689,167 85.38104979590148,170.5 84.62175545733294,174 83.71546120469606,177.5 82.55261482048653,181 81.22474563010528,184.5 80,188 76.32864137221829,191.5 72.89673363619558,195 69.99184320020693,198.5 67.71305938538285,202 65.94073615566442,205.5 64.42743490711432,209 62.95678769521172,212.5 61.477192818986985,216 60.1318923041244,219.5 59.167577075852975,223 58.7748118536225,226.5 58.953661145670246,230 59.48348287107397,233.5 60.01537518959506,237 60.23459362593026,240.5 60,244 57.4550907983014,247.5 55.10251123669515,251 52.757460909011286,254.5 50.32980096062501,258 47.87570383112428,261.5 45.554504082583904,265 43.51595054809085,268.5 41.784737786989794,272 40.21173645875644,275.5 38.52313892796683,279 36.442046373111644,282.5 33.81495111495019,286 30.672687015342856,289.5 27.193392455690027,293 23.591635064990005,296.5 20,300 18.916156835792002,303.5 17.937375133516884,307 17.02717001908822,310.5 16.086695805526052,314 15.049981008913345,317.5 13.962439757797538,321 12.993541045324825,324.5 12.37290341490965,328 12.284093117429919,331.5 12.775672633256406,335 13.739729921097588,338.5 14.969594707230488,342 16.263175401694028,345.5 17.51272615733491,349 18.730766547137144,352.5 20,356 20.820446010704156,357.5 21.51188931272622,359 21.894646374961287,360.5 21.895651034456606,362 21.575010587178603,363.5 21.07899248519555,365 20.546891688814327,366.5 20.026226250966406,368 19.445880747520768,369.5 18.662941102727075,371 17.555830630768945,372.5 16.109187161905883,374 14.440602542198052,375.5 12.753132127366143,377 11.240603827880571,378.5 10,380 8.283699235744502,382.25 6.497300624537484,384.5 4.706034106896552,386.75 3.0619228405376013,389 1.739512441224468,391.25 0.8499485063948402,393.5 0.3830237144630404,395.75 0.21127299205615113,398 0.15461440718878183,400.25 0.06917820174059086,402.5 0,404.75 0,407 0,409.25 0,411.5 0,413.75 0,416 0,416" fill="url(#area-496)"/>
</svg>