<svg xmlns="http://www.w3.org/2000/svg" viewBox="0 0 100 408" preserveAspectRatio="none">
  <defs>
    <linearGradient id="area-496" x1="0%" y1="0%" x2="100%" y2="0%">
      <stop offset="0%" stop-color="rgb(6, 182, 212)" stop-opacity="0"/>
      <stop offset="50%" stop-color="rgb(6, 182, 212)" stop-opacity="0"/>
      <stop offset="75%" stop-color="rgb(6, 182, 212)" stop-opacity="0.1"/>
      <stop offset="90%" stop-color="rgb(6, 182, 212)" stop-opacity="0.18"/>
      <stop offset="100%" stop-color="rgb(6, 182, 212)" stop-opacity="0.25"/>
    </linearGradient>
    <linearGradient id="spray-496" x1="0" y1="0" x2="100" y2="0" gradientUnits="userSpaceOnUse">
      <stop offset="0%" stop-color="rgb(37, 99, 235)" stop-opacity="0"/>
      <stop offset="30%" stop-color="rgb(37, 99, 235)" stop-opacity="0.3"/>
      <stop offset="50%" stop-color="rgb(37, 99, 235)" stop-opacity="0.7"/>
      <stop offset="65%" stop-color="rgb(37, 99, 235)" stop-opacity="1"/>
      <stop offset="82%" stop-color="rgb(6, 182, 212)" stop-opacity="1"/>
      <stop offset="100%" stop-color="rgb(6, 182, 212)" stop-opacity="1"/>
    </linearGradient>
    <!-- Opacity fade mask (bottom fades out - less fade) -->
    <mask id="fade-bottom-496">
      <linearGradient id="fade-gradient-496" x1="0" y1="0" x2="0" y2="1">
        <stop offset="0%" stop-color="white"/>
        <stop offset="75%" stop-color="white"/>
        <stop offset="90%" stop-color="rgb(200,200,200)"/>
        <stop offset="97%" stop-color="rgb(140,140,140)"/>
        <stop offset="100%" stop-color="rgb(80,80,80)"/>
      </linearGradient>
      <rect x="0" y="0" width="100" height="408" fill="url(#fade-gradient-496)"/>
    </mask>
    <!-- Progressive blur mask: black at top (show sharp), white at bottom (show blur) -->
    <linearGradient id="blur-reveal-496" x1="0" y1="0" x2="0" y2="1">
      <stop offset="0%" stop-color="black"/>
      <stop offset="60%" stop-color="black"/>
      <stop offset="85%" stop-color="white"/>
      <stop offset="100%" stop-color="white"/>
    </linearGradient>
    <mask id="blur-mask-496">
      <rect x="0" y="0" width="100" height="408" fill="url(#blur-reveal-496)"/>
    </mask>
    <!-- Sharp reveal mask: opposite of blur mask -->
    <linearGradient id="sharp-reveal-496" x1="0" y1="0" x2="0" y2="1">
      <stop offset="0%" stop-color="white"/>
      <stop offset="60%" stop-color="white"/>
      <stop offset="85%" stop-color="black"/>
      <stop offset="100%" stop-color="black"/>
    </linearGradient>
    <mask id="sharp-mask-496">
      <rect x="0" y="0" width="100" height="408" fill="url(#sharp-reveal-496)"/>
    </mask>
    <filter id="blur-496" x="-20%" y="-20%" width="140%" height="140%">
      <feGaussianBlur stdDeviation="2"/>
    </filter>
  </defs>
  <!-- Layer 1: Blurred version (visible at bottom through mask) -->
  <g mask="url(#blur-mask-496)" filter="url(#blur-496)">
    <polygon points="0,0 80,0 80,20 79.3174839685959,23.5 79.18344147602247,27 79.40014966988824,30.5 79.67789536026109,34 79.80638987886026,37.5 79.77268489429196,41 79.75591661150254,44.5 80.00167299904756,48 80.64984351711308,51.5 81.61780639631237,55 82.60925112020182,58.5 83.24618963659519,62 83.25025394185033,65.5 82.57093393533172,69 81.38953145711355,72.5 80,76 77.44144451498128,79.5 74.81787226058755,83 72.49667684542528,86.5 70.81002896260242,90 69.89815683884616,93.5 69.65352188773517,97 69.79871444329434,100.5 70.05323742508014,104 70.29267394480016,107.5 70.60833022808086,111 71.23367392836033,114.5 72.38172927735313,118 74.08954744248298,121.5 76.16160099582964,125 78.24602445413132,128.5 80,132 82.16081928619933,135.5 84.43027017693991,139 86.65338102719491,142.5 88.51324730862405,146 89.6742530645812,149.5 89.95460531150148,153 89.42777430032612,156.5 88.39236273050788,160 87.2255103124965,163.5 86.20204994884689,167 85.38104979590148,170.5 84.62175545733294,174 83.71546120469606,177.5 82.55261482048653,181 81.22474563010528,184.5 80,188 76.32864137221829,191.5 72.89673363619558,195 69.99184320020693,198.5 67.71305938538285,202 65.94073615566442,205.5 64.42743490711432,209 62.95678769521172,212.5 61.477192818986985,216 60.1318923041244,219.5 59.167577075852975,223 58.7748118536225,226.5 58.953661145670246,230 59.48348287107397,233.5 60.01537518959506,237 60.23459362593026,240.5 60,244 57.4550907983014,247.5 55.10251123669515,251 52.757460909011286,254.5 50.32980096062501,258 47.87570383112428,261.5 45.554504082583904,265 43.51595054809085,268.5 41.784737786989794,272 40.21173645875644,275.5 38.52313892796683,279 36.442046373111644,282.5 33.81495111495019,286 30.672687015342856,289.5 27.193392455690027,293 23.591635064990005,296.5 20,300 18.916156835792002,303.5 17.937375133516884,307 17.02717001908822,310.5 16.086695805526052,314 15.049981008913345,317.5 13.962439757797538,321 12.993541045324825,324.5 12.37290341490965,328 12.284093117429919,331.5 12.775672633256406,335 13.739729921097588,338.5 14.969594707230488,342 16.263175401694028,345.5 17.51272615733491,349 18.730766547137144,352.5 20,356 21.533942705237063,359.25 22.93098457677068,362.5 24.000441050979326,365.75 24.664772526362114,369 24.987766337414026,372.25 25.12464508632997,375.5 25.223231996292753,378.75 25.333954388780676,382 25.381342834103673,385.25 25.21373341513894,388.5 24.7021059755099,391.75 23.830157804471547,395 22.722680248863238,398.25 21.595160624959988,401.5 20.653293858158975,404.75 20,408 0,408" fill="url(#spray-496)" fill-opacity="0.7" mask="url(#fade-bottom-496)"/>
    <polygon points="0,0 80,0 80,20 79.3174839685959,23.5 79.18344147602247,27 79.40014966988824,30.5 79.67789536026109,34 79.80638987886026,37.5 79.77268489429196,41 79.75591661150254,44.5 80.00167299904756,48 80.64984351711308,51.5 81.61780639631237,55 82.60925112020182,58.5 83.24618963659519,62 83.25025394185033,65.5 82.57093393533172,69 81.38953145711355,72.5 80,76 77.44144451498128,79.5 74.81787226058755,83 72.49667684542528,86.5 70.81002896260242,90 69.89815683884616,93.5 69.65352188773517,97 69.79871444329434,100.5 70.05323742508014,104 70.29267394480016,107.5 70.60833022808086,111 71.23367392836033,114.5 72.38172927735313,118 74.08954744248298,121.5 76.16160099582964,125 78.24602445413132,128.5 80,132 82.16081928619933,135.5 84.43027017693991,139 86.65338102719491,142.5 88.51324730862405,146 89.6742530645812,149.5 89.95460531150148,153 89.42777430032612,156.5 88.39236273050788,160 87.2255103124965,163.5 86.20204994884689,167 85.38104979590148,170.5 84.62175545733294,174 83.71546120469606,177.5 82.55261482048653,181 81.22474563010528,184.5 80,188 76.32864137221829,191.5 72.89673363619558,195 69.99184320020693,198.5 67.71305938538285,202 65.94073615566442,205.5 64.42743490711432,209 62.95678769521172,212.5 61.477192818986985,216 60.1318923041244,219.5 59.167577075852975,223 58.7748118536225,226.5 58.953661145670246,230 59.48348287107397,233.5 60.01537518959506,237 60.23459362593026,240.5 60,244 57.4550907983014,247.5 55.10251123669515,251 52.757460909011286,254.5 50.32980096062501,258 47.87570383112428,261.5 45.554504082583904,265 43.51595054809085,268.5 41.784737786989794,272 40.21173645875644,275.5 38.52313892796683,279 36.442046373111644,282.5 33.81495111495019,286 30.672687015342856,289.5 27.193392455690027,293 23.591635064990005,296.5 20,300 18.916156835792002,303.5 17.937375133516884,307 17.02717001908822,310.5 16.086695805526052,314 15.049981008913345,317.5 13.962439757797538,321 12.993541045324825,324.5 12.37290341490965,328 12.284093117429919,331.5 12.775672633256406,335 13.739729921097588,338.5 14.969594707230488,342 16.263175401694028,345.5 17.51272615733491,349 18.730766547137144,352.5 20,356 21.533942705237063,359.25 22.93098457677068,362.5 24.000441050979326,365.75 24.664772526362114,369 24.987766337414026,372.25 25.12464508632997,375.5 25.223231996292753,378.75 25.333954388780676,382 25.381342834103673,385.25 25.21373341513894,388.5 24.7021059755099,391.75 23.830157804471547,395 22.722680248863238,398.25 21.595160624959988,401.5 20.653293858158975,404.75 20,408 0,408" fill="url(#area-496)"/>
  </g>
  <!-- Layer 2: Sharp version (visible at top through mask) -->
  <g mask="url(#sharp-mask-496)">
    <polygon points="0,0 80,0 80,20 79.3174839685959,23.5 79.18344147602247,27 79.40014966988824,30.5 79.67789536026109,34 79.80638987886026,37.5 79.77268489429196,41 79.75591661150254,44.5 80.00167299904756,48 80.64984351711308,51.5 81.61780639631237,55 82.60925112020182,58.5 83.24618963659519,62 83.25025394185033,65.5 82.57093393533172,69 81.38953145711355,72.5 80,76 77.44144451498128,79.5 74.81787226058755,83 72.49667684542528,86.5 70.81002896260242,90 69.89815683884616,93.5 69.65352188773517,97 69.79871444329434,100.5 70.05323742508014,104 70.29267394480016,107.5 70.60833022808086,111 71.23367392836033,114.5 72.38172927735313,118 74.08954744248298,121.5 76.16160099582964,125 78.24602445413132,128.5 80,132 82.16081928619933,135.5 84.43027017693991,139 86.65338102719491,142.5 88.51324730862405,146 89.6742530645812,149.5 89.95460531150148,153 89.42777430032612,156.5 88.39236273050788,160 87.2255103124965,163.5 86.20204994884689,167 85.38104979590148,170.5 84.62175545733294,174 83.71546120469606,177.5 82.55261482048653,181 81.22474563010528,184.5 80,188 76.32864137221829,191.5 72.89673363619558,195 69.99184320020693,198.5 67.71305938538285,202 65.94073615566442,205.5 64.42743490711432,209 62.95678769521172,212.5 61.477192818986985,216 60.1318923041244,219.5 59.167577075852975,223 58.7748118536225,226.5 58.953661145670246,230 59.48348287107397,233.5 60.01537518959506,237 60.23459362593026,240.5 60,244 57.4550907983014,247.5 55.10251123669515,251 52.757460909011286,254.5 50.32980096062501,258 47.87570383112428,261.5 45.554504082583904,265 43.51595054809085,268.5 41.784737786989794,272 40.21173645875644,275.5 38.52313892796683,279 36.442046373111644,282.5 33.81495111495019,286 30.672687015342856,289.5 27.193392455690027,293 23.591635064990005,296.5 20,300 18.916156835792002,303.5 17.937375133516884,307 17.02717001908822,310.5 16.086695805526052,314 15.049981008913345,317.5 13.962439757797538,321 12.993541045324825,324.5 12.37290341490965,328 12.284093117429919,331.5 12.775672633256406,335 13.739729921097588,338.5 14.969594707230488,342 16.263175401694028,345.5 17.51272615733491,349 18.730766547137144,352.5 20,356 21.533942705237063,359.25 22.93098457677068,362.5 24.000441050979326,365.75 24.664772526362114,369 24.987766337414026,372.25 25.12464508632997,375.5 25.223231996292753,378.75 25.333954388780676,382 25.381342834103673,385.25 25.21373341513894,388.5 24.7021059755099,391.75 23.830157804471547,395 22.722680248863238,398.25 21.595160624959988,401.5 20.653293858158975,404.75 20,408 0,408" fill="url(#spray-496)" fill-opacity="0.7" mask="url(#fade-bottom-496)"/>
    <polygon points="0,0 80,0 80,20 79.3174839685959,23.5 79.18344147602247,27 79.40014966988824,30.5 79.67789536026109,34 79.80638987886026,37.5 79.77268489429196,41 79.75591661150254,44.5 80.00167299904756,48 80.64984351711308,51.5 81.61780639631237,55 82.60925112020182,58.5 83.24618963659519,62 83.25025394185033,65.5 82.57093393533172,69 81.38953145711355,72.5 80,76 77.44144451498128,79.5 74.81787226058755,83 72.49667684542528,86.5 70.81002896260242,90 69.89815683884616,93.5 69.65352188773517,97 69.79871444329434,100.5 70.05323742508014,104 70.29267394480016,107.5 70.60833022808086,111 71.23367392836033,114.5 72.38172927735313,118 74.08954744248298,121.5 76.16160099582964,125 78.24602445413132,128.5 80,132 82.16081928619933,135.5 84.43027017693991,139 86.65338102719491,142.5 88.51324730862405,146 89.6742530645812,149.5 89.95460531150148,153 89.42777430032612,156.5 88.39236273050788,160 87.2255103124965,163.5 86.20204994884689,167 85.38104979590148,170.5 84.62175545733294,174 83.71546120469606,177.5 82.55261482048653,181 81.22474563010528,184.5 80,188 76.32864137221829,191.5 72.89673363619558,195 69.99184320020693,198.5 67.71305938538285,202 65.94073615566442,205.5 64.42743490711432,209 62.95678769521172,212.5 61.477192818986985,216 60.1318923041244,219.5 59.167577075852975,223 58.7748118536225,226.5 58.953661145670246,230 59.48348287107397,233.5 60.01537518959506,237 60.23459362593026,240.5 60,244 57.4550907983014,247.5 55.10251123669515,251 52.757460909011286,254.5 50.32980096062501,258 47.87570383112428,261.5 45.554504082583904,265 43.51595054809085,268.5 41.784737786989794,272 40.21173645875644,275.5 38.52313892796683,279 36.442046373111644,282.5 33.81495111495019,286 30.672687015342856,289.5 27.193392455690027,293 23.591635064990005,296.5 20,300 18.916156835792002,303.5 17.937375133516884,307 17.02717001908822,310.5 16.086695805526052,314 15.049981008913345,317.5 13.962439757797538,321 12.993541045324825,324.5 12.37290341490965,328 12.284093117429919,331.5 12.775672633256406,335 13.739729921097588,338.5 14.969594707230488,342 16.263175401694028,345.5 17.51272615733491,349 18.730766547137144,352.5 20,356 21.533942705237063,359.25 22.93098457677068,362.5 24.000441050979326,365.75 24.664772526362114,369 24.987766337414026,372.25 25.12464508632997,375.5 25.223231996292753,378.75 25.333954388780676,382 25.381342834103673,385.25 25.21373341513894,388.5 24.7021059755099,391.75 23.830157804471547,395 22.722680248863238,398.25 21.595160624959988,401.5 20.653293858158975,404.75 20,408 0,408" fill="url(#area-496)"/>
  </g>
</svg>