<svg xmlns="http://www.w3.org/2000/svg" viewBox="0 0 100 416" preserveAspectRatio="none">
  <defs>
    <linearGradient id="area-511" x1="0%" y1="0%" x2="100%" y2="0%">
      <stop offset="0%" stop-color="rgb(6, 182, 212)" stop-opacity="0"/>
      <stop offset="55%" stop-color="rgb(6, 182, 212)" stop-opacity="0"/>
      <stop offset="75%" stop-color="rgb(6, 182, 212)" stop-opacity="0.1"/>
      <stop offset="90%" stop-color="rgb(6, 182, 212)" stop-opacity="0.18"/>
      <stop offset="100%" stop-color="rgb(6, 182, 212)" stop-opacity="0.25"/>
    </linearGradient>
    <linearGradient id="spray-511" x1="0" y1="0" x2="100" y2="0" gradientUnits="userSpaceOnUse">
      <stop offset="0%" stop-color="rgb(37, 99, 235)" stop-opacity="0"/>
      <stop offset="35%" stop-color="rgb(37, 99, 235)" stop-opacity="0.2"/>
      <stop offset="50%" stop-color="rgb(37, 99, 235)" stop-opacity="0.6"/>
      <stop offset="65%" stop-color="rgb(37, 99, 235)" stop-opacity="1"/>
      <stop offset="82%" stop-color="rgb(6, 182, 212)" stop-opacity="1"/>
      <stop offset="100%" stop-color="rgb(6, 182, 212)" stop-opacity="1"/>
    </linearGradient>
  </defs>
  <polygon points="0,0 80,0 80,20 79.56310850368098,23.5 78.64821849441596,27 77.55796775477128,30.5 76.5970794283881,34 75.91567994083323,37.5 75.45036500768062,41 74.9967445763937,44.5 74.36966065967883,48 73.5552840304548,51.5 72.76339082246922,55 72.3460078986815,58.5 72.62650627707302,62 73.73559849102708,65.5 75.54695827433335,69 77.74755345382405,72.5 80,76 81.75274963076988,79.5 83.46247961676825,83 85.14132843370604,86.5 86.6114084614885,90 87.57069930978938,93.5 87.75259892821867,97 87.0868272437243,100.5 85.76649372056106,104 84.17912107497462,107.5 82.73744382888795,111 81.70334314809433,114.5 81.10174715287629,118 80.7687291270217,121.5 80.50014908515548,125 80.20952477278387,128.5 80,132 80.15482661539497,135.5 80.12253166439021,139 80.08533728518337,142.5 80.04901127055543,146 79.84568497719523,149.5 79.25551705664422,153 78.17482860136697,156.5 76.72945102567263,160 75.26261726106416,163.5 74.1990596498949,167 73.85884067998045,170.5 74.32384366003467,174 75.42960166593093,177.5 76.88292174098798,181 78.4337576193648,184.5 80,188 77.6354698689231,191.5 75.2699406875811,195 73.03117845482078,198.5 70.86393976149435,202 68.60168664232522,205.5 66.11438764802864,209 63.44241827905572,212.5 60.833641160122184,216 58.65675781021433,219.5 57.236287301803515,223 56.70077676076112,226.5 56.92899192003921,230 57.62282032482801,233.5 58.463126454252496,237 59.2581123163286,240.5 60,244 56.05242224674554,247.5 51.8360313138169,251 47.50019851211837,254.5 43.3162244334593,258 39.56362560436194,261.5 36.404133292499225,265 33.81515585923638,268.5 31.62057611440285,272 29.60065123850538,275.5 27.617225475080254,279 25.68207901319541,282.5 23.92990762986011,286 22.5134439964502,289.5 21.483821402212747,293 20.727799784935094,296.5 20,300 19.537350087133742,303.5 19.10709521120283,307 18.726750212782687,310.5 18.513693546925786,314 18.614965551900166,317.5 19.107461514124463,321 19.928259819510505,324.5 20.87825626166633,328 21.70018252738631,331.5 22.18903226124224,335 22.274066194553445,338.5 22.027951021305768,342 21.600643908344644,345.5 21.118806714463112,349 20.61064001663504,352.5 20,356 20.387984783109342,357.5 20.877954210230886,359 21.51306045486774,360.5 22.229764087203467,362 22.85144219191352,363.5 23.152581252854304,365 22.959107213566888,366.5 22.228476066876766,368 21.064038343399282,369.5 19.655633622209923,371 18.18055162894402,372.5 16.72131471610811,374 15.246204826107652,375.5 13.661299315556532,377 11.90077773650099,378.5 10,380 9.879432331975574,382.25 9.609200292985022,384.5 9.289635662472548,386.75 8.960803403308812,389 8.568818881423411,391.25 7.995514797338028,393.5 7.1346323920970915,395.75 5.9696501332291065,398 4.6065541121368385,400.25 3.2404536125228476,402.5 2.0730532710468124,404.75 1.2263701942957388,407 0.7001663711682837,409.25 0.395159802913457,411.5 0.18605298936497927,413.75 0,416 0,416" fill="url(#spray-511)" fill-opacity="0.7"/>
  <polygon points="0,0 80,0 80,20 79.56310850368098,23.5 78.64821849441596,27 77.55796775477128,30.5 76.5970794283881,34 75.91567994083323,37.5 75.45036500768062,41 74.9967445763937,44.5 74.36966065967883,48 73.5552840304548,51.5 72.76339082246922,55 72.3460078986815,58.5 72.62650627707302,62 73.73559849102708,65.5 75.54695827433335,69 77.74755345382405,72.5 80,76 81.75274963076988,79.5 83.46247961676825,83 85.14132843370604,86.5 86.6114084614885,90 87.57069930978938,93.5 87.75259892821867,97 87.0868272437243,100.5 85.76649372056106,104 84.17912107497462,107.5 82.73744382888795,111 81.70334314809433,114.5 81.10174715287629,118 80.7687291270217,121.5 80.50014908515548,125 80.20952477278387,128.5 80,132 80.15482661539497,135.5 80.12253166439021,139 80.08533728518337,142.5 80.04901127055543,146 79.84568497719523,149.5 79.25551705664422,153 78.17482860136697,156.5 76.72945102567263,160 75.26261726106416,163.5 74.1990596498949,167 73.85884067998045,170.5 74.32384366003467,174 75.42960166593093,177.5 76.88292174098798,181 78.4337576193648,184.5 80,188 77.6354698689231,191.5 75.2699406875811,195 73.03117845482078,198.5 70.86393976149435,202 68.60168664232522,205.5 66.11438764802864,209 63.44241827905572,212.5 60.833641160122184,216 58.65675781021433,219.5 57.236287301803515,223 56.70077676076112,226.5 56.92899192003921,230 57.62282032482801,233.5 58.463126454252496,237 59.2581123163286,240.5 60,244 56.05242224674554,247.5 51.8360313138169,251 47.50019851211837,254.5 43.3162244334593,258 39.56362560436194,261.5 36.404133292499225,265 33.81515585923638,268.5 31.62057611440285,272 29.60065123850538,275.5 27.617225475080254,279 25.68207901319541,282.5 23.92990762986011,286 22.5134439964502,289.5 21.483821402212747,293 20.727799784935094,296.5 20,300 19.537350087133742,303.5 19.10709521120283,307 18.726750212782687,310.5 18.513693546925786,314 18.614965551900166,317.5 19.107461514124463,321 19.928259819510505,324.5 20.87825626166633,328 21.70018252738631,331.5 22.18903226124224,335 22.274066194553445,338.5 22.027951021305768,342 21.600643908344644,345.5 21.118806714463112,349 20.61064001663504,352.5 20,356 20.387984783109342,357.5 20.877954210230886,359 21.51306045486774,360.5 22.229764087203467,362 22.85144219191352,363.5 23.152581252854304,365 22.959107213566888,366.5 22.228476066876766,368 21.064038343399282,369.5 19.655633622209923,371 18.18055162894402,372.5 16.72131471610811,374 15.246204826107652,375.5 13.661299315556532,377 11.90077773650099,378.5 10,380 9.879432331975574,382.25 9.609200292985022,384.5 9.289635662472548,386.75 8.960803403308812,389 8.568818881423411,391.25 7.995514797338028,393.5 7.1346323920970915,395.75 5.9696501332291065,398 4.6065541121368385,400.25 3.2404536125228476,402.5 2.0730532710468124,404.75 1.2263701942957388,407 0.7001663711682837,409.25 0.395159802913457,411.5 0.18605298936497927,413.75 0,416 0,416" fill="url(#area-511)"/>
</svg>