<svg xmlns="http://www.w3.org/2000/svg" viewBox="0 0 100 408" preserveAspectRatio="none">
  <defs>
    <linearGradient id="area-502" x1="0%" y1="0%" x2="100%" y2="0%">
      <stop offset="0%" stop-color="rgb(6, 182, 212)" stop-opacity="0"/>
      <stop offset="55%" stop-color="rgb(6, 182, 212)" stop-opacity="0"/>
      <stop offset="75%" stop-color="rgb(6, 182, 212)" stop-opacity="0.1"/>
      <stop offset="90%" stop-color="rgb(6, 182, 212)" stop-opacity="0.18"/>
      <stop offset="100%" stop-color="rgb(6, 182, 212)" stop-opacity="0.25"/>
    </linearGradient>
    <linearGradient id="spray-502" x1="0" y1="0" x2="100" y2="0" gradientUnits="userSpaceOnUse">
      <stop offset="0%" stop-color="rgb(37, 99, 235)" stop-opacity="0"/>
      <stop offset="35%" stop-color="rgb(37, 99, 235)" stop-opacity="0.2"/>
      <stop offset="50%" stop-color="rgb(37, 99, 235)" stop-opacity="0.6"/>
      <stop offset="65%" stop-color="rgb(37, 99, 235)" stop-opacity="1"/>
      <stop offset="82%" stop-color="rgb(6, 182, 212)" stop-opacity="1"/>
      <stop offset="100%" stop-color="rgb(6, 182, 212)" stop-opacity="1"/>
    </linearGradient>
    <!-- Opacity fade mask (bottom fades out - less fade) -->
    <mask id="fade-bottom-502">
      <linearGradient id="fade-gradient-502" x1="0" y1="0" x2="0" y2="1">
        <stop offset="0%" stop-color="white"/>
        <stop offset="75%" stop-color="white"/>
        <stop offset="90%" stop-color="rgb(200,200,200)"/>
        <stop offset="97%" stop-color="rgb(140,140,140)"/>
        <stop offset="100%" stop-color="rgb(80,80,80)"/>
      </linearGradient>
      <rect x="0" y="0" width="100" height="408" fill="url(#fade-gradient-502)"/>
    </mask>
    <!-- Progressive blur mask: black at top (show sharp), white at bottom (show blur) -->
    <linearGradient id="blur-reveal-502" x1="0" y1="0" x2="0" y2="1">
      <stop offset="0%" stop-color="black"/>
      <stop offset="60%" stop-color="black"/>
      <stop offset="85%" stop-color="white"/>
      <stop offset="100%" stop-color="white"/>
    </linearGradient>
    <mask id="blur-mask-502">
      <rect x="0" y="0" width="100" height="408" fill="url(#blur-reveal-502)"/>
    </mask>
    <!-- Sharp reveal mask: opposite of blur mask -->
    <linearGradient id="sharp-reveal-502" x1="0" y1="0" x2="0" y2="1">
      <stop offset="0%" stop-color="white"/>
      <stop offset="60%" stop-color="white"/>
      <stop offset="85%" stop-color="black"/>
      <stop offset="100%" stop-color="black"/>
    </linearGradient>
    <mask id="sharp-mask-502">
      <rect x="0" y="0" width="100" height="408" fill="url(#sharp-reveal-502)"/>
    </mask>
    <filter id="blur-502" x="-20%" y="-20%" width="140%" height="140%">
      <feGaussianBlur stdDeviation="1"/>
    </filter>
  </defs>
  <!-- Layer 1: Blurred version (visible at bottom through mask) -->
  <g mask="url(#blur-mask-502)" filter="url(#blur-502)">
    <polygon points="0,0 80,0 80,20 79.71356360062397,23.5 78.9344303097278,27 77.66639909167851,30.5 76.14206445213719,34 74.7272782492573,37.5 73.74770275959652,41 73.33626799097509,44.5 73.38879897694578,48 73.6524703750054,51.5 73.89462724963298,55 74.05296100676712,58.5 74.27926188465668,62 74.85139858020186,65.5 76.00527256999149,69 77.7851757395789,72.5 80,76 79.54561924294319,79.5 79.20158527039834,83 78.73368481114991,86.5 78.06988588192867,90 77.32360571368352,93.5 76.69904317816022,97 76.3349659082845,100.5 76.18044516634342,104 75.97831254857613,107.5 75.36980466400827,111 74.06333171374183,114.5 71.97277166895962,118 69.24809462159503,121.5 66.18328256120273,125 63.05709247234586,128.5 60,132 56.68968053448801,135.5 53.61796903324944,139 50.93361943120408,142.5 48.60734279054912,146 46.485017575762924,149.5 44.41295745268959,153 42.36012809716952,156.5 40.46366311166834,160 38.96879512451601,163.5 38.09624503364887,167 37.912969972819326,170.5 38.280857694749464,174 38.91319910592254,177.5 39.506704428234364,181 39.87369149193024,184.5 40,188 40.25310355470288,191.5 40.09546472296885,195 39.610424872552414,198.5 39.01099164683125,202 38.52638642435459,205.5 38.2813851304695,209 38.23862477279164,212.5 38.23734843366387,216 38.105646914685344,219.5 37.780138306992235,223 37.3624638218348,226.5 37.078675508530125,230 37.16411470439794,233.5 37.73969987411472,237 38.75036869131995,240.5 40,244 39.66386957384475,247.5 39.34386797162069,251 38.989417525664294,254.5 38.43754310927117,258 37.49685896035266,261.5 36.06058983496132,265 34.18188242598797,268.5 32.06564034197059,272 29.97909960494861,275.5 28.13034212206375,279 26.582461807029635,282.5 25.25031992632872,286 23.978893363742557,289.5 22.655138816766044,293 21.286545818603347,296.5 20,300 21.377829187751914,303.5 22.562010082537988,307 23.612344475651785,310.5 24.629960882436794,314 25.660552368710956,317.5 26.63232620087285,321 27.36780390857362,324.5 27.665170432377103,328 27.403654845363985,331.5 26.61260915210676,335 25.46428408208831,338.5 24.19396907328732,342 22.992701917602393,345.5 21.93294531820817,349 20.967676077409365,352.5 20,356 18.24567495004903,357.5 16.506686154312217,359 14.940446008107877,360.5 13.597031569609115,362 12.411712404679552,363.5 11.266722335136336,365 10.085175420976583,366.5 8.900801628723226,368 7.860994426764632,369.5 7.159499958781344,371 6.93624770776819,372.5 7.201250156792944,374 7.825815319435905,375.5 8.605514914889751,377 9.358106661877164,378.5 10,380 9.493890590335376,381.75 9.000188427610144,383.5 8.469679388352104,385.25 7.789998987387736,387 6.86108153965768,388.75 5.671102768614912,390.5 4.326820658594807,392.25 3.018316702792626,394 1.9361861399657778,395.75 1.1869767452842295,397.5 0.7538833938465066,399.25 0.5236358243037684,401 0.3623834694362369,402.75 0.19544160717070969,404.5 0.04429207527646972,406.25 0,408 0,408" fill="url(#spray-502)" fill-opacity="0.7" mask="url(#fade-bottom-502)"/>
    <polygon points="0,0 80,0 80,20 79.71356360062397,23.5 78.9344303097278,27 77.66639909167851,30.5 76.14206445213719,34 74.7272782492573,37.5 73.74770275959652,41 73.33626799097509,44.5 73.38879897694578,48 73.6524703750054,51.5 73.89462724963298,55 74.05296100676712,58.5 74.27926188465668,62 74.85139858020186,65.5 76.00527256999149,69 77.7851757395789,72.5 80,76 79.54561924294319,79.5 79.20158527039834,83 78.73368481114991,86.5 78.06988588192867,90 77.32360571368352,93.5 76.69904317816022,97 76.3349659082845,100.5 76.18044516634342,104 75.97831254857613,107.5 75.36980466400827,111 74.06333171374183,114.5 71.97277166895962,118 69.24809462159503,121.5 66.18328256120273,125 63.05709247234586,128.5 60,132 56.68968053448801,135.5 53.61796903324944,139 50.93361943120408,142.5 48.60734279054912,146 46.485017575762924,149.5 44.41295745268959,153 42.36012809716952,156.5 40.46366311166834,160 38.96879512451601,163.5 38.09624503364887,167 37.912969972819326,170.5 38.280857694749464,174 38.91319910592254,177.5 39.506704428234364,181 39.87369149193024,184.5 40,188 40.25310355470288,191.5 40.09546472296885,195 39.610424872552414,198.5 39.01099164683125,202 38.52638642435459,205.5 38.2813851304695,209 38.23862477279164,212.5 38.23734843366387,216 38.105646914685344,219.5 37.780138306992235,223 37.3624638218348,226.5 37.078675508530125,230 37.16411470439794,233.5 37.73969987411472,237 38.75036869131995,240.5 40,244 39.66386957384475,247.5 39.34386797162069,251 38.989417525664294,254.5 38.43754310927117,258 37.49685896035266,261.5 36.06058983496132,265 34.18188242598797,268.5 32.06564034197059,272 29.97909960494861,275.5 28.13034212206375,279 26.582461807029635,282.5 25.25031992632872,286 23.978893363742557,289.5 22.655138816766044,293 21.286545818603347,296.5 20,300 21.377829187751914,303.5 22.562010082537988,307 23.612344475651785,310.5 24.629960882436794,314 25.660552368710956,317.5 26.63232620087285,321 27.36780390857362,324.5 27.665170432377103,328 27.403654845363985,331.5 26.61260915210676,335 25.46428408208831,338.5 24.19396907328732,342 22.992701917602393,345.5 21.93294531820817,349 20.967676077409365,352.5 20,356 18.24567495004903,357.5 16.506686154312217,359 14.940446008107877,360.5 13.597031569609115,362 12.411712404679552,363.5 11.266722335136336,365 10.085175420976583,366.5 8.900801628723226,368 7.860994426764632,369.5 7.159499958781344,371 6.93624770776819,372.5 7.201250156792944,374 7.825815319435905,375.5 8.605514914889751,377 9.358106661877164,378.5 10,380 9.493890590335376,381.75 9.000188427610144,383.5 8.469679388352104,385.25 7.789998987387736,387 6.86108153965768,388.75 5.671102768614912,390.5 4.326820658594807,392.25 3.018316702792626,394 1.9361861399657778,395.75 1.1869767452842295,397.5 0.7538833938465066,399.25 0.5236358243037684,401 0.3623834694362369,402.75 0.19544160717070969,404.5 0.04429207527646972,406.25 0,408 0,408" fill="url(#area-502)"/>
  </g>
  <!-- Layer 2: Sharp version (visible at top through mask) -->
  <g mask="url(#sharp-mask-502)">
    <polygon points="0,0 80,0 80,20 79.71356360062397,23.5 78.9344303097278,27 77.66639909167851,30.5 76.14206445213719,34 74.7272782492573,37.5 73.74770275959652,41 73.33626799097509,44.5 73.38879897694578,48 73.6524703750054,51.5 73.89462724963298,55 74.05296100676712,58.5 74.27926188465668,62 74.85139858020186,65.5 76.00527256999149,69 77.7851757395789,72.5 80,76 79.54561924294319,79.5 79.20158527039834,83 78.73368481114991,86.5 78.06988588192867,90 77.32360571368352,93.5 76.69904317816022,97 76.3349659082845,100.5 76.18044516634342,104 75.97831254857613,107.5 75.36980466400827,111 74.06333171374183,114.5 71.97277166895962,118 69.24809462159503,121.5 66.18328256120273,125 63.05709247234586,128.5 60,132 56.68968053448801,135.5 53.61796903324944,139 50.93361943120408,142.5 48.60734279054912,146 46.485017575762924,149.5 44.41295745268959,153 42.36012809716952,156.5 40.46366311166834,160 38.96879512451601,163.5 38.09624503364887,167 37.912969972819326,170.5 38.280857694749464,174 38.91319910592254,177.5 39.506704428234364,181 39.87369149193024,184.5 40,188 40.25310355470288,191.5 40.09546472296885,195 39.610424872552414,198.5 39.01099164683125,202 38.52638642435459,205.5 38.2813851304695,209 38.23862477279164,212.5 38.23734843366387,216 38.105646914685344,219.5 37.780138306992235,223 37.3624638218348,226.5 37.078675508530125,230 37.16411470439794,233.5 37.73969987411472,237 38.75036869131995,240.5 40,244 39.66386957384475,247.5 39.34386797162069,251 38.989417525664294,254.5 38.43754310927117,258 37.49685896035266,261.5 36.06058983496132,265 34.18188242598797,268.5 32.06564034197059,272 29.97909960494861,275.5 28.13034212206375,279 26.582461807029635,282.5 25.25031992632872,286 23.978893363742557,289.5 22.655138816766044,293 21.286545818603347,296.5 20,300 21.377829187751914,303.5 22.562010082537988,307 23.612344475651785,310.5 24.629960882436794,314 25.660552368710956,317.5 26.63232620087285,321 27.36780390857362,324.5 27.665170432377103,328 27.403654845363985,331.5 26.61260915210676,335 25.46428408208831,338.5 24.19396907328732,342 22.992701917602393,345.5 21.93294531820817,349 20.967676077409365,352.5 20,356 18.24567495004903,357.5 16.506686154312217,359 14.940446008107877,360.5 13.597031569609115,362 12.411712404679552,363.5 11.266722335136336,365 10.085175420976583,366.5 8.900801628723226,368 7.860994426764632,369.5 7.159499958781344,371 6.93624770776819,372.5 7.201250156792944,374 7.825815319435905,375.5 8.605514914889751,377 9.358106661877164,378.5 10,380 9.493890590335376,381.75 9.000188427610144,383.5 8.469679388352104,385.25 7.789998987387736,387 6.86108153965768,388.75 5.671102768614912,390.5 4.326820658594807,392.25 3.018316702792626,394 1.9361861399657778,395.75 1.1869767452842295,397.5 0.7538833938465066,399.25 0.5236358243037684,401 0.3623834694362369,402.75 0.19544160717070969,404.5 0.04429207527646972,406.25 0,408 0,408" fill="url(#spray-502)" fill-opacity="0.7" mask="url(#fade-bottom-502)"/>
    <polygon points="0,0 80,0 80,20 79.71356360062397,23.5 78.9344303097278,27 77.66639909167851,30.5 76.14206445213719,34 74.7272782492573,37.5 73.74770275959652,41 73.33626799097509,44.5 73.38879897694578,48 73.6524703750054,51.5 73.89462724963298,55 74.05296100676712,58.5 74.27926188465668,62 74.85139858020186,65.5 76.00527256999149,69 77.7851757395789,72.5 80,76 79.54561924294319,79.5 79.20158527039834,83 78.73368481114991,86.5 78.06988588192867,90 77.32360571368352,93.5 76.69904317816022,97 76.3349659082845,100.5 76.18044516634342,104 75.97831254857613,107.5 75.36980466400827,111 74.06333171374183,114.5 71.97277166895962,118 69.24809462159503,121.5 66.18328256120273,125 63.05709247234586,128.5 60,132 56.68968053448801,135.5 53.61796903324944,139 50.93361943120408,142.5 48.60734279054912,146 46.485017575762924,149.5 44.41295745268959,153 42.36012809716952,156.5 40.46366311166834,160 38.96879512451601,163.5 38.09624503364887,167 37.912969972819326,170.5 38.280857694749464,174 38.91319910592254,177.5 39.506704428234364,181 39.87369149193024,184.5 40,188 40.25310355470288,191.5 40.09546472296885,195 39.610424872552414,198.5 39.01099164683125,202 38.52638642435459,205.5 38.2813851304695,209 38.23862477279164,212.5 38.23734843366387,216 38.105646914685344,219.5 37.780138306992235,223 37.3624638218348,226.5 37.078675508530125,230 37.16411470439794,233.5 37.73969987411472,237 38.75036869131995,240.5 40,244 39.66386957384475,247.5 39.34386797162069,251 38.989417525664294,254.5 38.43754310927117,258 37.49685896035266,261.5 36.06058983496132,265 34.18188242598797,268.5 32.06564034197059,272 29.97909960494861,275.5 28.13034212206375,279 26.582461807029635,282.5 25.25031992632872,286 23.978893363742557,289.5 22.655138816766044,293 21.286545818603347,296.5 20,300 21.377829187751914,303.5 22.562010082537988,307 23.612344475651785,310.5 24.629960882436794,314 25.660552368710956,317.5 26.63232620087285,321 27.36780390857362,324.5 27.665170432377103,328 27.403654845363985,331.5 26.61260915210676,335 25.46428408208831,338.5 24.19396907328732,342 22.992701917602393,345.5 21.93294531820817,349 20.967676077409365,352.5 20,356 18.24567495004903,357.5 16.506686154312217,359 14.940446008107877,360.5 13.597031569609115,362 12.411712404679552,363.5 11.266722335136336,365 10.085175420976583,366.5 8.900801628723226,368 7.860994426764632,369.5 7.159499958781344,371 6.93624770776819,372.5 7.201250156792944,374 7.825815319435905,375.5 8.605514914889751,377 9.358106661877164,378.5 10,380 9.493890590335376,381.75 9.000188427610144,383.5 8.469679388352104,385.25 7.789998987387736,387 6.86108153965768,388.75 5.671102768614912,390.5 4.326820658594807,392.25 3.018316702792626,394 1.9361861399657778,395.75 1.1869767452842295,397.5 0.7538833938465066,399.25 0.5236358243037684,401 0.3623834694362369,402.75 0.19544160717070969,404.5 0.04429207527646972,406.25 0,408 0,408" fill="url(#area-502)"/>
  </g>
</svg>